<svg width="12" height="12" viewBox="0 0 12 12" fill="none" xmlns="http://www.w3.org/2000/svg">
<path d="M11.8593 1.04744L4.17968 10.8592C4.1351 10.9162 4.08217 10.9614 4.0239 10.9923C3.96563 11.0231 3.90317 11.039 3.8401 11.039C3.77702 11.039 3.71456 11.0231 3.65629 10.9923C3.59802 10.9614 3.54509 10.9162 3.50051 10.8592L0.140661 6.56654C0.0505971 6.45148 0 6.29541 0 6.13268C0 5.96995 0.0505971 5.81388 0.140661 5.69882C0.230724 5.58375 0.352876 5.5191 0.480245 5.5191C0.607615 5.5191 0.729767 5.58375 0.81983 5.69882L3.8401 9.55836L11.1802 0.179712C11.2702 0.064644 11.3924 -1.21243e-09 11.5198 0C11.6471 1.21243e-09 11.7693 0.064644 11.8593 0.179712C11.9494 0.294779 12 0.450845 12 0.613575C12 0.776305 11.9494 0.93237 11.8593 1.04744Z" fill="#121A24"/>
</svg>
